<?xml version="1.0" standalone="no"?>
<!DOCTYPE svg PUBLIC "-//W3C//DTD SVG 20010904//EN"
 "http://www.w3.org/TR/2001/REC-SVG-20010904/DTD/svg10.dtd">
<svg version="1.0" xmlns="http://www.w3.org/2000/svg"
 width="700.000000pt" height="700.000000pt" viewBox="0 0 700.000000 700.000000"
 preserveAspectRatio="xMidYMid meet">
<metadata>
Created by potrace 1.14, written by Peter Selinger 2001-2017
</metadata>
<g transform="translate(0.000000,700.000000) scale(0.100000,-0.100000)"
fill="#000000" stroke="none">
<path d="M3305 6993 c-605 -32 -1225 -238 -1730 -574 -223 -149 -354 -256
-545 -448 -194 -194 -301 -325 -449 -546 -299 -450 -491 -977 -557 -1535 -24
-198 -24 -582 0 -780 79 -671 332 -1277 752 -1805 113 -141 388 -416 529 -529
772 -615 1736 -877 2708 -735 604 87 1196 346 1682 735 142 114 417 388 529
529 419 526 672 1134 752 1805 24 198 24 582 0 780 -47 400 -154 771 -322
1120 -182 378 -385 663 -683 960 -287 286 -546 476 -891 649 -554 280 -1156
407 -1775 374z m384 -333 c786 -54 1487 -369 2037 -915 529 -526 839 -1174
925 -1935 17 -152 15 -518 -4 -676 -76 -619 -303 -1160 -687 -1639 -482 -599
-1185 -1010 -1940 -1134 -222 -37 -338 -44 -603 -38 -359 7 -594 47 -912 152
-504 166 -912 420 -1281 797 -475 485 -770 1078 -876 1763 -29 189 -36 597
-14 795 33 291 102 570 203 825 290 733 830 1322 1533 1674 511 255 1065 369
1619 331z"/>
<path d="M4825 5681 c-44 -16 -114 -44 -155 -63 -97 -45 -100 -46 -292 -63
-176 -15 -374 -59 -432 -94 -35 -22 -72 -59 -65 -65 2 -2 109 -34 237 -70 390
-111 452 -133 493 -176 76 -80 120 -212 89 -270 -9 -16 -518 -388 -760 -555
-48 -33 -160 -132 -255 -225 -252 -246 -304 -292 -368 -325 -32 -16 -286 -191
-565 -387 l-507 -356 -180 -78 c-350 -150 -396 -181 -522 -349 -49 -65 -53
-74 -53 -127 0 -68 -17 -64 180 -43 74 8 135 13 137 12 1 -2 -126 -72 -282
-157 -283 -154 -285 -155 -285 -187 0 -46 43 -89 112 -113 32 -11 67 -20 78
-20 25 0 25 -11 -1 -61 -11 -23 -18 -43 -16 -45 5 -5 433 126 517 158 30 12
242 113 470 224 228 111 435 208 460 214 25 7 101 14 170 15 107 2 147 8 278
42 l153 39 73 -38 c86 -45 101 -68 140 -208 46 -163 64 -191 169 -262 103 -70
311 -271 341 -331 25 -48 12 -60 -55 -53 -65 7 -109 -21 -109 -68 0 -25 -11
-48 -40 -85 -22 -28 -40 -58 -40 -67 0 -48 49 -148 65 -132 4 3 -1 21 -10 38
-18 34 -15 62 8 94 19 26 274 70 297 51 23 -19 389 -29 410 -11 11 10 28 12
65 6 60 -9 66 -6 28 14 -16 8 -35 21 -42 30 -10 12 -9 17 8 25 11 6 31 11 46
11 37 0 22 17 -26 30 -32 9 -57 8 -117 -5 -43 -9 -95 -15 -117 -13 l-40 3 43
47 c38 40 43 51 37 77 -5 24 -2 30 14 36 19 6 85 -3 154 -20 22 -6 27 -4 27
12 0 29 -41 62 -95 79 -64 19 -88 18 -135 -6 -56 -29 -168 -28 -233 3 -26 12
-100 69 -163 127 -112 102 -115 106 -110 140 4 19 9 75 13 124 l6 89 61 76
c84 104 292 317 401 411 115 98 210 168 360 263 385 244 591 518 738 985 96
300 140 671 103 867 -45 249 -96 371 -207 504 -39 47 -80 102 -90 124 -70 137
-186 187 -434 187 -85 0 -112 -5 -180 -29z"/>
</g>
</svg>
